<mxfile host="app.diagrams.net" modified="2023-04-18T01:48:13.511Z" agent="Mozilla/5.0 (Windows NT 10.0; Win64; x64) AppleWebKit/537.36 (KHTML, like Gecko) Chrome/112.0.0.0 Safari/537.36" version="21.1.8" etag="FZsFu7VOm9jpj4Fibmky" type="github">
  <diagram name="PÃ¡gina-1" id="rTqkzJXF_m19JA-Yj2oA">
    <mxGraphModel>
      <root>
        <mxCell id="0" />
        <mxCell id="1" parent="0" />
      </root>
    </mxGraphModel>
  </diagram>
</mxfile>
